<svg width="34" height="32" viewBox="0 0 34 32" fill="none" xmlns="http://www.w3.org/2000/svg">
<path d="M3.66665 0C1.81665 0 0.333313 1.48333 0.333313 3.33333V20C0.333313 20.8841 0.684502 21.7319 1.30962 22.357C1.93474 22.9821 2.78259 23.3333 3.66665 23.3333H17V31.6667L22 26.6667L27 31.6667V23.3333H30.3333C31.2174 23.3333 32.0652 22.9821 32.6903 22.357C33.3155 21.7319 33.6666 20.8841 33.6666 20V3.33333C33.6666 2.44928 33.3155 1.60143 32.6903 0.976311C32.0652 0.351189 31.2174 0 30.3333 0H3.66665ZM17 3.33333L22 6.66667L27 3.33333V9.16667L32 11.6667L27 14.1667V20L22 16.6667L17 20V14.1667L12 11.6667L17 9.16667V3.33333ZM3.66665 3.33333H12V6.66667H3.66665V3.33333ZM3.66665 10H8.66665V13.3333H3.66665V10ZM3.66665 16.6667H12V20H3.66665V16.6667Z" fill="url(#paint0_linear_5108_499)"/>
<defs>
<linearGradient id="paint0_linear_5108_499" x1="0.333313" y1="15.8333" x2="33.6666" y2="15.8333" gradientUnits="userSpaceOnUse">
<stop stop-color="#1A2856"/>
<stop offset="1" stop-color="#334EA9"/>
</linearGradient>
</defs>
</svg>
